#!OML:ASF G:\JayActor3\Patient Classification 1\Patient 1\Session 6\male.ASF
:FULLY-SPECIFIED
:DEGREES
401
root 31.0344 15.4541 -6.59355 176.313 -53.0956 -188.483
lowerback 7.11663 0.48743 8.23231
upperback 10.2275 -0.478251 5.51021
thorax 6.9017 -0.335035 1.18569
lowerneck 12.5212 3.31064 7.64122
upperneck -6.09417 3.86286 -18.1505
head -3.36887 2.5841 -7.17515
rclavicle -6.04305e-014 6.67916e-014
rhumerus -29.8512 -11.3885 -76.2226
rradius 47.8764
rwrist -5.13604
rhand -27.6597 -13.4583
rfingers 7.12502
rthumb -1.05721 -43.4355
lclavicle -6.04305e-014 6.67916e-014
lhumerus -30.8912 7.83758 80.4012
lradius 26.9069
lwrist 24.5713
lhand -16.5904 9.56657
lfingers 7.12502
lthumb 9.63053 39.3264
rfemur -3.91974 -3.98294 17.9799
rtibia 48.4256
rfoot -35.3839 -18.0026
rtoes 0.989445
lfemur -35.8686 18.0152 -27.5472
ltibia 71.7536
lfoot -11.9828 -7.1162
ltoes -13.2296
402
root 30.9248 15.4913 -6.72339 176.134 -53.1381 -188.092
lowerback 6.71989 0.72703 8.42753
upperback 10.0499 -0.130948 5.39623
thorax 6.94465 -0.124046 0.954565
lowerneck 12.261 3.51201 7.57257
upperneck -5.88381 4.1792 -17.8856
head -3.22531 2.71634 -7.0746
rclavicle -2.38542e-014 7.95139e-014
rhumerus -30.067 -11.169 -76.5011
rradius 48.4462
rwrist -5.14059
rhand -27.5884 -13.4602
rfingers 7.12502
rthumb -0.98836 -43.4377
lclavicle -2.38542e-014 7.95139e-014
lhumerus -31.4914 8.06203 79.8073
lradius 26.617
lwrist 24.6384
lhand -16.3286 9.63679
lfingers 7.12502
lthumb 9.88316 39.3848
rfemur -2.67769 -3.59503 18.5397
rtibia 47.1397
rfoot -35.6482 -18.2672
rtoes 1.30303
lfemur -35.0653 18.2454 -28.2025
ltibia 67.1351
lfoot -12.5057 -6.21414
ltoes -12.97
403
root 30.813 15.5259 -6.85412 175.959 -53.1321 -187.672
lowerback 6.3189 0.971781 8.59457
upperback 9.84905 0.224485 5.28173
thorax 6.9683 0.0881151 0.741438
lowerneck 11.9867 3.71105 7.46705
upperneck -5.64226 4.4926 -17.5658
head -3.07409 2.84453 -6.94791
rclavicle -5.64548e-014 0
rhumerus -30.2776 -10.8693 -76.7763
rradius 48.9433
rwrist -5.02906
rhand -27.5043 -13.4676
rfingers 7.12502
rthumb -0.907114 -43.4454
lclavicle -5.64548e-014 0
lhumerus -32.1524 8.23613 79.2253
lradius 26.4993
lwrist 24.7048
lhand -16.0478 9.68828
lfingers 7.12502
lthumb 10.154 39.4233
rfemur -1.47012 -3.20908 19.1179
rtibia 45.8508
rfoot -35.8973 -18.5028
rtoes 1.66063
lfemur -34.148 18.5412 -28.7701
ltibia 62.3839
lfoot -13.0217 -5.87652
ltoes -12.8792
404
root 30.6991 15.5577 -6.9857 175.782 -53.0877 -187.22
lowerback 5.91283 1.21472 8.73553
upperback 9.6257 0.578593 5.16465
thorax 6.97336 0.296822 0.542913
lowerneck 11.7242 3.90453 7.3389
upperneck -5.39152 4.79815 -17.1995
head -2.9265 2.9683 -6.80208
rclavicle -3.93594e-014 -5.40694e-014
rhumerus -30.483 -10.497 -77.0526
rradius 49.3735
rwrist -4.82714
rhand -27.4132 -13.4784
rfingers 7.12502
rthumb -0.819182 -43.4566
lclavicle -3.93594e-014 -5.40694e-014
lhumerus -32.8791 8.36206 78.6479
lradius 26.5592
lwrist 24.7909
lhand -15.7493 9.73197
lfingers 7.12502
lthumb 10.442 39.4526
rfemur -0.295244 -2.86835 19.7002
rtibia 44.5671
rfoot -36.1249 -18.6826
rtoes 2.03601
lfemur -33.1416 18.8631 -29.248
ltibia 57.5773
lfoot -13.5273 -6.0366
ltoes -13.0548
405
root 30.5837 15.5869 -7.11756 175.62 -53.0231 -186.737
lowerback 5.46793 1.45268 8.86936
upperback 9.39514 0.922274 5.02836
thorax 6.99631 0.500693 0.332143
lowerneck 11.4635 4.08735 7.21749
upperneck -5.1565 5.09034 -16.7934
head -2.78807 3.08532 -6.64479
rclavicle -2.18663e-014 -3.81667e-014
rhumerus -30.6469 -10.0983 -77.3579
rradius 49.7386
rwrist -4.56477
rhand -27.3673 -13.5386
rfingers 7.12502
rthumb -0.774829 -43.517
lclavicle -2.18663e-014 -3.81667e-014
lhumerus -33.633 8.41568 78.0592
lradius 26.7939
lwrist 24.9321
lhand -15.4463 9.79346
lfingers 7.12502
lthumb 10.7343 39.4992
rfemur 0.826873 -2.62994 20.2662
rtibia 43.2923
rfoot -36.3182 -18.7814
rtoes 2.4671
lfemur -32.0937 19.1479 -29.642
ltibia 52.8158
lfoot -14.0583 -6.44683
ltoes -13.8524
406
root 30.4673 15.6133 -7.24905 175.462 -52.9529 -186.205
lowerback 4.97128 1.68254 9.01174
upperback 9.16363 1.24825 4.87292
thorax 7.05218 0.697321 0.101549
lowerneck 11.2139 4.2529 7.12877
upperneck -4.95334 5.36054 -16.3714
head -2.6648 3.19268 -6.48872
rclavicle 7.63333e-014 8.90555e-014
rhumerus -30.7663 -9.67109 -77.7014
rradius 50.066
rwrist -4.3061
rhand -27.4413 -13.7327
rfingers 7.12502
rthumb -0.846354 -43.7108
lclavicle 7.63333e-014 8.90555e-014
lhumerus -34.3946 8.39124 77.458
lradius 27.1895
lwrist 25.1675
lhand -15.1558 9.85755
lfingers 7.12502
lthumb 11.0145 39.5486
rfemur 1.88802 -2.54646 20.8054
rtibia 42.026
rfoot -36.446 -18.7845
rtoes 2.88125
lfemur -31.0418 19.3354 -29.9347
ltibia 48.2124
lfoot -14.6008 -6.82165
ltoes -14.9745
407
root 30.3507 15.6372 -7.37964 175.287 -52.8902 -185.592
lowerback 4.41232 1.90327 9.18454
upperback 8.93686 1.55175 4.70211
thorax 7.15467 0.885681 -0.155799
lowerneck 10.9938 4.39879 7.07562
upperneck -4.81073 5.603 -15.9387
head -2.56841 3.28918 -6.33744
rclavicle -3.29983e-014 6.67916e-014
rhumerus -30.8331 -9.23367 -78.0815
rradius 50.3641
rwrist -4.08482
rhand -27.4166 -13.8858
rfingers 7.12502
rthumb -0.822413 -43.864
lclavicle -3.29983e-014 6.67916e-014
lhumerus -35.1456 8.29345 76.8426
lradius 27.7322
lwrist 25.5065
lhand -14.8918 9.93242
lfingers 7.12502
lthumb 11.2691 39.6097
rfemur 2.87868 -2.6572 21.3219
rtibia 40.7676
rfoot -36.4648 -18.7052
rtoes 3.16953
lfemur -30.0265 19.3747 -30.0982
ltibia 43.8927
lfoot -15.1558 -6.84567
ltoes -16.1937
408
root 30.2351 15.6585 -7.50864 175.076 -52.8299 -184.884
lowerback 3.79807 2.11692 9.39239
upperback 8.72309 1.83282 4.52486
thorax 7.30957 1.06545 -0.432477
lowerneck 10.8138 4.53056 7.04949
upperneck -4.73886 5.82266 -15.5044
head -2.50275 3.37803 -6.19321
rclavicle -1.47101e-014 -9.54166e-015
rhumerus -30.8403 -8.77195 -78.4964
rradius 50.6487
rwrist -3.92605
rhand -27.3154 -14.0081
rfingers 7.12502
rthumb -0.724688 -43.9866
lclavicle -1.47101e-014 -9.54166e-015
lhumerus -35.8702 8.15231 76.2171
lradius 28.4053
lwrist 25.9462
lhand -14.6675 10.0111
lfingers 7.12502
lthumb 11.4854 39.6765
rfemur 3.79905 -2.97127 21.8141
rtibia 39.5183
rfoot -36.3571 -18.5181
rtoes 3.3209
lfemur -29.0773 19.2324 -30.1046
ltibia 39.982
lfoot -15.7022 -6.30347
ltoes -17.3237
409
root 30.1208 15.6774 -7.63576 174.819 -52.7727 -184.092
lowerback 3.14017 2.32145 9.62101
upperback 8.53406 2.08638 4.35142
thorax 7.52176 1.23264 -0.709854
lowerneck 10.6858 4.65564 7.03466
upperneck -4.74607 6.0263 -15.0804
head -2.47141 3.46332 -6.05803
rclavicle -2.18663e-014 3.18055e-014
rhumerus -30.7799 -8.27052 -78.9313
rradius 50.9254
rwrist -3.86753
rhand -27.0258 -13.9769
rfingers 7.12502
rthumb -0.445004 -43.9562
lclavicle -2.18663e-014 3.18055e-014
lhumerus -36.5575 8.01343 75.5904
lradius 29.1802
lwrist 26.4617
lhand -14.4925 10.0548
lfingers 7.12502
lthumb 11.6542 39.7107
rfemur 4.67128 -3.48117 22.2674
rtibia 38.2819
rfoot -36.1043 -18.225
rtoes 3.25691
lfemur -28.2112 18.9031 -29.9424
ltibia 36.5941
lfoot -16.1768 -5.20926
ltoes -17.902
